<?xml version="1.0" encoding="iso-8859-1"?>
<!-- Generator: Adobe Illustrator 19.0.0, SVG Export Plug-In . SVG Version: 6.00 Build 0)  -->
<svg version="1.1" id="Capa_1" xmlns="http://www.w3.org/2000/svg" xmlns:xlink="http://www.w3.org/1999/xlink" x="0px" y="0px"
	 viewBox="0 0 512 512" style="enable-background:new 0 0 512 512;" xml:space="preserve">
<path style="fill:#FD7034;" d="M512,256c0,88.357-44.774,166.264-112.859,212.25c-3.699,2.518-7.471,4.921-11.306,7.231
	C349.33,498.667,304.222,512,256,512c-39.34,0-76.601-8.871-109.902-24.733c-3.176-1.515-6.322-3.093-9.425-4.733
	c-4.242-2.236-8.422-4.598-12.518-7.064c-3.835-2.309-7.607-4.713-11.306-7.231C44.763,422.264,0,344.357,0,256
	C0,114.615,114.615,0,256,0S512,114.615,512,256z"/>
<path style="fill:#FD8B59;" d="M467.111,211.111c0,76.827-41.041,144.063-102.393,180.995
	c-31.752,19.121-68.952,30.116-108.717,30.116c-32.442,0-63.169-7.315-90.631-20.395c-6.205-2.956-12.244-6.205-18.096-9.728
	C85.922,355.174,44.889,287.938,44.889,211.111C44.889,94.517,139.406,0,256,0S467.111,94.517,467.111,211.111z"/>
<g>
	<rect x="246.638" y="64.592" style="fill:#474F70;" width="18.717" height="86.779"/>
	<rect x="192.637" y="327.879" style="fill:#474F70;" width="126.182" height="75.327"/>
</g>
<path style="fill:#535E8A;" d="M346.446,345.591H165.539c-13.418,0-24.295-10.877-24.295-24.295V162.056
	c0-13.418,10.877-24.295,24.295-24.295h180.907c13.418,0,24.295,10.877,24.295,24.295v159.239
	C370.741,334.713,359.865,345.591,346.446,345.591z"/>
<path style="fill:#474F70;" d="M163.366,321.296V162.056c0-13.418,10.877-24.295,24.295-24.295h-22.12
	c-13.418,0-24.295,10.877-24.295,24.295v159.239c0,13.418,10.877,24.295,24.295,24.295h22.12
	C174.243,345.591,163.366,334.713,163.366,321.296z"/>
<path style="fill:#535E8A;" d="M399.141,394.94v73.31c-3.699,2.518-7.471,4.921-11.306,7.231C349.33,498.667,304.222,512,256,512
	c-39.34,0-76.601-8.871-109.902-24.733c-7.523-3.584-14.848-7.523-21.943-11.797c-3.835-2.309-7.607-4.713-11.306-7.231v-73.3
	c0-13.406,10.888-24.283,24.294-24.283h237.693C388.253,370.657,399.141,381.534,399.141,394.94z"/>
<g>
	<path style="fill:#474F70;" d="M160.967,370.657c-13.406,0-24.294,10.877-24.294,24.283v87.594
		c-4.242-2.236-8.422-4.598-12.518-7.064c-3.835-2.309-7.607-4.713-11.306-7.231v-73.3c0-13.406,10.888-24.283,24.294-24.283
		L160.967,370.657L160.967,370.657z"/>
	<path style="fill:#474F70;" d="M416.829,228.212h-17.017v-67.376c0-79.301-64.516-143.818-143.818-143.818
		S112.176,81.534,112.176,160.836v67.376H95.159v-67.376c0-88.685,72.15-160.835,160.835-160.835s160.835,72.15,160.835,160.835
		L416.829,228.212L416.829,228.212z"/>
	<path style="fill:#474F70;" d="M364.958,324.574h-37.489v-11.344h37.489c9.353,0,16.962-7.609,16.962-16.963v-36.016h11.344v36.016
		C393.264,311.875,380.565,324.574,364.958,324.574z"/>
	<path style="fill:#474F70;" d="M399.826,181.631h-14.542c-8.031,0-14.542,6.511-14.542,14.542v64.077
		c0,8.031,6.511,14.542,14.542,14.542h14.542V181.631z"/>
</g>
<path style="fill:#55CEED;" d="M402.134,181.631L402.134,181.631c-8.031,0-14.543,6.511-14.543,14.542v64.077
	c0,8.031,6.511,14.542,14.542,14.542l0,0c14.864,0,26.912-12.049,26.912-26.912v-39.337
	C429.047,193.68,416.998,181.631,402.134,181.631z"/>
<path style="fill:#474F70;" d="M112.159,181.631h14.542c8.031,0,14.542,6.511,14.542,14.542v64.077
	c0,8.031-6.511,14.542-14.542,14.542h-14.542V181.631z"/>
<path style="fill:#55CEED;" d="M109.852,181.631L109.852,181.631c8.031,0,14.542,6.511,14.542,14.542v64.077
	c0,8.031-6.511,14.542-14.542,14.542l0,0c-14.864,0-26.912-12.049-26.912-26.912v-39.337
	C82.94,193.68,94.989,181.631,109.852,181.631z"/>
<path style="fill:#17A3BF;" d="M95.796,247.881v-39.337c0-12.28,8.226-22.63,19.466-25.861c-1.674-0.672-3.497-1.051-5.412-1.051
	l0,0c-14.864,0-26.912,12.049-26.912,26.912v39.337c0,14.864,12.05,26.912,26.912,26.912l0,0c1.914,0,3.738-0.379,5.412-1.052
	C104.024,270.512,95.796,260.16,95.796,247.881z"/>
<circle style="fill:#55CEED;" cx="327.471" cy="318.903" r="12.479"/>
<circle style="fill:#474F70;" cx="193.881" cy="216.033" r="36.582"/>
<path style="fill:#FCC72E;" d="M193.885,237.872c-12.041,0-21.836-9.796-21.836-21.836c0-12.041,9.796-21.836,21.836-21.836
	c12.04,0,21.836,9.796,21.836,21.836C215.721,228.076,205.925,237.872,193.885,237.872z"/>
<circle style="fill:#474F70;" cx="318.098" cy="216.033" r="36.582"/>
<path style="fill:#FCC72E;" d="M318.102,237.872c-12.041,0-21.836-9.796-21.836-21.836c0-12.041,9.796-21.836,21.836-21.836
	s21.836,9.796,21.836,21.836C339.938,228.076,330.143,237.872,318.102,237.872z"/>
<path style="fill:#474F70;" d="M294.28,301.116h-76.572c-7.518,0-13.613-6.095-13.613-13.613l0,0
	c0-7.518,6.095-13.613,13.613-13.613h76.572c7.518,0,13.613,6.095,13.613,13.613l0,0
	C307.892,295.022,301.798,301.116,294.28,301.116z"/>
<g>
	<path style="fill:#323B5B;" d="M169.665,408.69c0-2.953,3.063-4.484,6.234-4.484h21.105c11.373,0,21.979,3.718,21.979,19.246
		c0,8.966-3.499,14.872-9.295,17.386c6.671,2.625,11.263,6.889,11.263,17.824v2.297c0,17.059-9.514,23.182-21.87,23.182h-23.182
		c-3.827,0-6.234-2.078-6.234-4.374V408.69z M183.771,435.262h12.247c5.905,0,8.748-3.827,8.748-9.404
		c0-5.686-3.28-9.186-8.858-9.186h-12.138L183.771,435.262L183.771,435.262z M196.128,471.676c6.67,0,10.607-3.609,10.607-11.919
		v-1.749c0-8.53-3.937-11.591-10.607-11.591h-12.357v25.26h12.357V471.676z"/>
	<path style="fill:#323B5B;" d="M230.241,459.756v-30.509c0-18.262,11.154-25.041,25.589-25.041
		c14.434,0,25.697,6.779,25.697,25.041v30.509c0,18.262-11.263,25.041-25.697,25.041S230.241,478.018,230.241,459.756z
		 M267.311,429.247c0-8.638-4.374-12.575-11.482-12.575c-7.217,0-11.373,3.937-11.373,12.575v30.509
		c0,8.639,4.156,12.575,11.373,12.575c7.108,0,11.482-3.936,11.482-12.575V429.247z"/>
	<path style="fill:#323B5B;" d="M337.837,404.206c3.063,0,4.484,3.28,4.484,6.343c0,3.39-1.641,6.451-4.484,6.451h-15.965v62.657
		c0,2.953-3.608,4.484-7.107,4.484c-3.609,0-7.108-1.531-7.108-4.484V417h-16.074c-2.843,0-4.484-2.953-4.484-6.451
		c0-3.063,1.421-6.343,4.484-6.343H337.837z"/>
</g>
<circle style="fill:#FF4F6F;" cx="255.99" cy="64.592" r="28.076"/>
<path style="fill:#E33958;" d="M251.739,64.592c0-11.247,6.615-20.944,16.166-25.425c-3.616-1.697-7.652-2.651-11.912-2.651
	c-15.506,0-28.076,12.57-28.076,28.076s12.57,28.076,28.076,28.076c4.259,0,8.294-0.953,11.912-2.651
	C258.354,85.536,251.739,75.839,251.739,64.592z"/>
<g>
</g>
<g>
</g>
<g>
</g>
<g>
</g>
<g>
</g>
<g>
</g>
<g>
</g>
<g>
</g>
<g>
</g>
<g>
</g>
<g>
</g>
<g>
</g>
<g>
</g>
<g>
</g>
<g>
</g>
</svg>
